<?xml version="1.0" encoding="utf-8"?>
<!-- Generator: Adobe Illustrator 19.2.1, SVG Export Plug-In . SVG Version: 6.00 Build 0)  -->
<svg version="1.1" id="Layer_1" xmlns="http://www.w3.org/2000/svg" xmlns:xlink="http://www.w3.org/1999/xlink" x="0px" y="0px"
	 viewBox="0 0 524 186.1" style="enable-background:new 0 0 524 186.1;" xml:space="preserve">
<style type="text/css">
	.st0{fill:#8C64BE;}
</style>
<g>
	<path class="st0" d="M266.5,70V35.5h-24.6l-3.4,25c-0.2,1.2-0.5,2.1-1,2.5c-0.5,0.5-1.4,0.8-2.5,0.8c-0.6,0-1.1,0-1.5-0.1
		c-0.4-0.1-1-0.2-1.8-0.4l-1.5,5.8c1.1,0.4,2.1,0.7,2.9,0.8c0.8,0.1,1.8,0.2,2.9,0.2c2.6,0,4.6-0.7,6.2-2.1c1.5-1.3,2.4-3.3,2.7-5.9
		l2.8-20.5h12.1V70H266.5z"/>
	<path class="st0" d="M280.5,65c1.6,1.7,3.5,3.1,5.8,4.1c2.3,1,4.9,1.5,7.6,1.5c2.8,0,5.2-0.5,7.5-1.4c2.2-0.9,4.2-2.2,5.8-3.9
		c1.6-1.6,2.8-3.5,3.6-5.6c0.9-2.1,1.3-4.4,1.3-6.9c0-2.5-0.5-4.8-1.3-7c-0.9-2.2-2.2-4.1-3.9-5.8c-1.6-1.6-3.5-2.8-5.7-3.7
		c-2.2-0.9-4.6-1.4-7.3-1.4c-2.8,0-5.3,0.5-7.6,1.5c-2.3,1-4.2,2.4-5.8,4.1c-1.5,1.6-2.7,3.5-3.6,5.5c-0.8,2.1-1.3,4.3-1.3,6.8
		c0,2.3,0.4,4.6,1.3,6.8C277.9,61.7,279,63.5,280.5,65z M283.4,48.1c0.6-1.4,1.3-2.6,2.3-3.6c1-1.1,2.3-2,3.7-2.6
		c1.4-0.6,3-0.9,4.6-0.9c1.8,0,3.3,0.3,4.7,0.9c1.4,0.6,2.6,1.4,3.6,2.4c1,1,1.7,2.3,2.2,3.7c0.5,1.4,0.8,3,0.8,4.7
		c0,1.7-0.3,3.2-0.8,4.6c-0.6,1.4-1.3,2.5-2.2,3.5c-1,1.1-2.2,2-3.6,2.6c-1.4,0.6-3,0.9-4.6,0.9c-1.6,0-3.2-0.3-4.6-1
		c-1.4-0.7-2.7-1.5-3.6-2.6c-1-1-1.7-2.2-2.3-3.6c-0.6-1.3-0.8-2.8-0.8-4.5C282.6,51,282.8,49.5,283.4,48.1z"/>
	<polygon class="st0" points="328.1,46.5 328.4,46.5 338.6,61.2 341.2,61.2 351.4,46.5 351.6,46.5 351.6,70 358.7,70 358.7,35.5 
		351.5,35.5 340.2,51.9 328.5,35.5 321.3,35.5 321.3,70 328.1,70 	"/>
	<path class="st0" d="M395.2,69c1.5-0.6,2.8-1.5,3.9-2.6c2.1-2.1,3.2-4.8,3.2-8.1c0-3.5-1.1-6.3-3.3-8.4c-1.1-1-2.4-1.8-3.9-2.4
		c-1.5-0.6-3.2-0.9-5.1-0.9h-10.7v-4.9H399v-6.2h-26.5V70H390C392,70,393.7,69.7,395.2,69z M379.3,52.9h10.4c1.8,0,3.2,0.5,4.1,1.4
		c0.5,0.5,0.9,1.1,1.2,1.8c0.3,0.7,0.4,1.4,0.4,2.2c0,0.7-0.1,1.4-0.3,2c-0.2,0.6-0.5,1.2-1,1.7c-0.5,0.5-1.1,1-1.8,1.3
		c-0.7,0.3-1.5,0.5-2.4,0.5h-10.7V52.9z"/>
	<path class="st0" d="M418.1,63.8h17.3l2.8,6.1h7.4l-15.3-34.5h-7L408,70h7.3L418.1,63.8z M426.4,42.6h0.5l5.9,15h-12.1L426.4,42.6z
		"/>
	<path class="st0" d="M460.3,60.8h9.7c1.8,0,3.5-0.3,5.1-0.9c1.6-0.6,3-1.5,4.2-2.7c1.1-1.1,2.1-2.4,2.8-4c0.7-1.5,1.1-3.2,1.1-4.9
		c0-1.6-0.3-3.1-0.8-4.5c-0.5-1.3-1.2-2.5-2.1-3.6c-1.2-1.5-2.7-2.6-4.5-3.4c-1.8-0.8-3.7-1.2-5.7-1.2h-16.7V70h7V60.8z M460.3,41.8
		h9.2c1.1,0,2.1,0.2,3,0.5c0.9,0.3,1.6,0.8,2.2,1.4c0.5,0.5,0.8,1.2,1.1,1.9c0.3,0.7,0.4,1.6,0.4,2.6c0,1.6-0.6,3.1-1.7,4.3
		c-1.1,1.3-2.7,2-4.6,2h-9.7V41.8z"/>
	<path class="st0" d="M520.6,63.8V35.5h-24.7l-3,21.8c-0.2,1-0.4,1.8-0.7,2.7c-0.3,0.8-0.6,1.5-1.1,2c-0.4,0.4-0.9,0.8-1.6,1.2
		c-0.7,0.4-1.8,0.6-3.2,0.6v12.8h5.8l0.6-6.5h24.6l0.7,6.5h5.9V63.8H520.6z M513.9,63.8h-16c0.5-0.9,0.9-1.7,1.1-2.5
		c0.2-0.8,0.4-1.6,0.5-2.6l2.5-16.9h12V63.8z"/>
</g>
<path class="st0" d="M93,186.1c-58.3,0-92-32.1-92.4-32.4L0,151.1c0.2-0.5,0.5-1.3,0.9-2.4C21.3,94,16.2,50.5,8.3,23.7l2.5-3.1
	c0.5,0,1,0,1.5,0c6.7,0,18-2.5,26.1-5.7c2.1-0.8,4.4-1.8,6.8-2.9C56.8,6.9,72.7,0,93,0s36.2,6.9,47.8,12c2.4,1,4.7,2,6.8,2.9
	c8.2,3.3,19.4,5.7,26.1,5.7c0.5,0,1,0,1.5,0l2.5,3.1c-7.9,26.8-13,70.3,7.5,125.1c0.4,1.1,0.7,1.9,0.9,2.4l-0.6,2.5
	C185,154,151.3,186.1,93,186.1z M5.2,151.2c3.1,2.8,12.3,10.2,27.8,17.2c18.9,8.5,39,12.8,60,12.8s41.1-4.3,60-12.8
	c15.5-7,24.7-14.4,27.8-17.2c-0.1-0.2-0.2-0.5-0.3-0.7c-20.2-53.9-16-97.3-8.5-125c-7.3-0.3-18.3-2.8-26.4-6.1
	c-2.2-0.9-4.5-1.9-6.9-2.9C127,11.3,112.3,4.9,93,4.9s-34,6.4-45.8,11.6c-2.4,1.1-4.7,2.1-6.9,2.9c-8.1,3.2-19.1,5.7-26.4,6.1
	c7.6,27.7,11.7,71.1-8.5,125C5.3,150.7,5.2,151,5.2,151.2z"/>
<g>
	<path class="st0" d="M95.4,114h-4.8c0-10.8-8.8-19.6-19.6-19.6v-4.8c10.8,0,19.6-8.8,19.6-19.6h4.8c0,10.8,8.8,19.6,19.6,19.6v4.8
		C104.2,94.4,95.4,103.2,95.4,114z M81.5,91.9c5,2.4,9.1,6.5,11.5,11.5c2.4-5,6.5-9.1,11.5-11.5c-5-2.4-9.1-6.5-11.5-11.5
		C90.6,85.5,86.5,89.5,81.5,91.9z"/>
	<g>
		<g>
			<g>
				<g>
					<path class="st0" d="M116.1,141.6c-9.7,0-18.6-5.4-23.2-13.6c-4.6,8.3-13.4,13.6-23.2,13.6c-14.6,0-26.5-11.9-26.5-26.5h4.8
						c0,12,9.7,21.7,21.7,21.7c9.6,0,18.2-6.5,20.9-15.7h4.6c2.6,9.3,11.2,15.7,20.9,15.7c12,0,21.7-9.7,21.7-21.7
						c0-9.6-6.5-18.2-15.7-20.9v-4.6c9.3-2.6,15.7-11.2,15.7-20.9c0-12-9.7-21.7-21.7-21.7c-9.6,0-18.2,6.5-20.9,15.7h-4.6
						C88,53.6,79.5,47.1,69.8,47.1c-12,0-21.7,9.7-21.7,21.7h-4.8c0-14.6,11.9-26.5,26.5-26.5c9.7,0,18.6,5.4,23.2,13.6
						c4.6-8.3,13.4-13.6,23.2-13.6c14.6,0,26.5,11.9,26.5,26.5c0,9.7-5.4,18.6-13.6,23.2c8.3,4.6,13.6,13.4,13.6,23.2
						C142.6,129.7,130.8,141.6,116.1,141.6z"/>
				</g>
			</g>
		</g>
	</g>
</g>
<g>
	<path class="st0" d="M253,97.7c-0.7-0.7-1.5-1.3-2.5-1.8c-1-0.4-2.1-0.7-3.4-0.7H245v-1.9h-3.7v1.9h-2.1c-1.3,0-2.4,0.2-3.4,0.7
		c-1,0.4-1.8,1-2.5,1.8c-0.7,0.7-1.2,1.5-1.5,2.4c-0.4,0.9-0.5,1.9-0.5,2.9c0,1.1,0.2,2.2,0.6,3.1c0.4,0.9,1,1.8,1.7,2.4
		c0.7,0.7,1.5,1.2,2.5,1.6c0.9,0.4,2,0.6,3.2,0.6h2.1v2.2h3.7v-2.2h2.1c1.2,0,2.2-0.2,3.2-0.6c0.9-0.4,1.7-0.9,2.5-1.6
		c0.7-0.7,1.3-1.5,1.7-2.4c0.4-0.9,0.6-2,0.6-3.1c0-1.1-0.2-2-0.5-2.9C254.2,99.1,253.7,98.3,253,97.7z M241.3,107.2h-1.9
		c-1.5,0-2.6-0.4-3.3-1.1c-0.4-0.4-0.7-0.8-0.9-1.3c-0.2-0.5-0.3-1.1-0.3-1.8c0-0.6,0.1-1.2,0.3-1.7c0.2-0.5,0.5-1,0.9-1.3
		c0.4-0.4,0.8-0.7,1.4-0.9c0.6-0.2,1.2-0.3,1.9-0.3h1.9V107.2z M251,104.7c-0.2,0.5-0.5,1-0.9,1.3c-0.7,0.7-1.8,1.1-3.3,1.1H245
		v-8.4h1.9c0.7,0,1.3,0.1,1.9,0.3c0.6,0.2,1,0.5,1.4,0.9c0.4,0.4,0.7,0.8,0.9,1.3c0.2,0.5,0.3,1.1,0.3,1.7
		C251.3,103.6,251.2,104.2,251,104.7z"/>
	<polygon class="st0" points="265.2,106.9 265.2,93.7 261.5,93.7 261.5,112.9 264.9,112.9 275.3,99.6 275.3,112.9 279,112.9 
		279,93.7 275.6,93.7 	"/>
	<polygon class="st0" points="299.3,101 289.9,101 289.9,93.7 286.1,93.7 286.1,112.9 289.9,112.9 289.9,104.4 299.3,104.4 
		299.3,112.9 303.1,112.9 303.1,93.7 299.3,93.7 	"/>
	<path class="st0" d="M329.6,112.9l-8.5-19.2h-3.9l-8.5,19.2h4.1l1.5-3.4h9.6l1.6,3.4H329.6z M315.7,106l3.1-8.4h0.3l3.3,8.4H315.7z
		"/>
	<polygon class="st0" points="351.5,112.9 351.5,93.7 347.8,93.7 347.8,101 338.4,101 338.4,93.7 334.6,93.7 334.6,112.9 
		338.4,112.9 338.4,104.4 347.8,104.4 347.8,112.9 	"/>
	<path class="st0" d="M373.7,107.3c-0.9,0.8-1.8,1.4-2.7,1.8c-0.9,0.4-1.9,0.6-2.9,0.6c-0.9,0-1.7-0.2-2.5-0.5
		c-0.8-0.3-1.5-0.8-2.1-1.4c-0.5-0.5-0.9-1.2-1.2-1.9c-0.3-0.8-0.5-1.7-0.5-2.6c0-0.9,0.2-1.8,0.5-2.6c0.4-0.8,0.8-1.5,1.4-2.1
		c0.6-0.6,1.2-1,2-1.3c0.8-0.3,1.6-0.5,2.4-0.5c1.1,0,2,0.2,2.9,0.6c0.9,0.4,1.8,1,2.7,1.8l2.3-2.6c-1.2-1.2-2.4-2-3.6-2.5
		c-1.2-0.5-2.6-0.8-4.3-0.8c-1.5,0-2.9,0.3-4.1,0.8c-1.2,0.5-2.3,1.2-3.2,2.1c-0.9,0.9-1.6,2-2.1,3.2c-0.5,1.2-0.7,2.5-0.7,3.9
		c0,1.5,0.3,2.8,0.8,4c0.5,1.2,1.2,2.3,2.1,3.2c0.9,0.9,2,1.6,3.2,2c1.2,0.5,2.6,0.7,4.1,0.7c1.6,0,3.1-0.3,4.3-0.8
		c1.2-0.5,2.4-1.4,3.6-2.6L373.7,107.3z"/>
	<path class="st0" d="M400,107.1c0.5-1.2,0.7-2.5,0.7-3.9c0-1.4-0.3-2.7-0.8-3.9c-0.5-1.2-1.2-2.3-2.2-3.2c-0.9-0.9-1.9-1.6-3.2-2.1
		c-1.2-0.5-2.6-0.8-4-0.8c-1.5,0-2.9,0.3-4.2,0.8c-1.3,0.6-2.4,1.3-3.2,2.3c-0.9,0.9-1.5,1.9-2,3.1c-0.5,1.2-0.7,2.4-0.7,3.8
		c0,1.3,0.2,2.6,0.7,3.8c0.5,1.2,1.1,2.2,1.9,3.1c0.9,1,2,1.7,3.2,2.3c1.3,0.6,2.7,0.8,4.2,0.8c1.5,0,2.9-0.3,4.2-0.8
		c1.2-0.5,2.3-1.3,3.2-2.2C398.8,109.4,399.5,108.3,400,107.1z M396.3,105.8c-0.3,0.8-0.7,1.4-1.2,2c-0.6,0.6-1.2,1.1-2,1.4
		c-0.8,0.3-1.6,0.5-2.5,0.5c-0.9,0-1.8-0.2-2.6-0.5c-0.8-0.4-1.5-0.8-2-1.4c-0.5-0.6-1-1.2-1.3-2c-0.3-0.7-0.5-1.6-0.5-2.5
		c0-1,0.2-1.8,0.5-2.6s0.7-1.4,1.3-2c0.6-0.6,1.3-1.1,2.1-1.4c0.8-0.3,1.6-0.5,2.5-0.5c1,0,1.9,0.2,2.6,0.5c0.8,0.3,1.4,0.8,2,1.3
		c0.5,0.6,0.9,1.3,1.2,2c0.3,0.8,0.4,1.7,0.4,2.6C396.8,104.2,396.6,105.1,396.3,105.8z"/>
	<path class="st0" d="M420.4,102.3v-0.2c0.6-0.4,1-0.9,1.3-1.5c0.3-0.6,0.4-1.2,0.4-1.9c0-0.8-0.1-1.5-0.4-2.1
		c-0.3-0.6-0.6-1.1-1-1.5c-0.6-0.6-1.4-0.9-2.2-1.2c-0.9-0.2-1.8-0.3-2.8-0.3h-9.3v19.2h9.5c0.7,0,1.3,0,1.9-0.1
		c0.5-0.1,1-0.2,1.5-0.3c0.4-0.2,0.8-0.3,1.2-0.6c0.4-0.2,0.7-0.5,1-0.8c0.6-0.5,1-1.2,1.3-1.9c0.3-0.7,0.5-1.5,0.5-2.4
		c0-1.1-0.3-2-0.8-2.8C422,103.3,421.3,102.7,420.4,102.3z M410.2,97h5.6c0.9,0,1.6,0.2,2,0.5c0.4,0.3,0.6,0.8,0.6,1.4
		c0,0.6-0.2,1.1-0.5,1.4c-0.4,0.4-0.9,0.5-1.5,0.5h-6.1V97z M418.7,108.8c-0.3,0.3-0.7,0.4-1.1,0.5c-0.4,0.1-0.9,0.2-1.4,0.2h-5.9
		v-5.3h6.3c0.7,0,1.2,0.1,1.6,0.3c0.3,0.2,0.6,0.4,0.9,0.6c0.2,0.2,0.3,0.5,0.4,0.8c0.1,0.3,0.1,0.6,0.1,0.9
		C419.5,107.7,419.2,108.4,418.7,108.8z"/>
	<path class="st0" d="M435.7,93.7l-8.5,19.2h4.1l1.5-3.4h9.6l1.6,3.4h4.1l-8.5-19.2H435.7z M434.3,106l3.1-8.4h0.3l3.3,8.4H434.3z"
		/>
	<path class="st0" d="M456.3,94.3c-0.9,0.4-1.7,1-2.4,1.7c-0.6,0.6-1.1,1.3-1.4,2.1c-0.3,0.8-0.5,1.7-0.5,2.7c0,1.5,0.4,2.8,1.2,4
		c0.6,0.9,1.5,1.6,2.4,2.2l-4,5.9h4.4l3.4-5.1h5.5v5.1h3.8V93.7h-9.3C458.2,93.7,457.2,93.9,456.3,94.3z M464.9,104.4h-5.5
		c-0.7,0-1.3-0.1-1.8-0.4c-0.5-0.3-0.9-0.6-1.2-1c-0.2-0.3-0.4-0.6-0.5-1c-0.1-0.4-0.2-0.8-0.2-1.2c0-0.4,0.1-0.8,0.2-1.2
		c0.1-0.4,0.3-0.7,0.5-1c0.3-0.4,0.7-0.7,1.2-1c0.5-0.3,1.1-0.4,1.6-0.4h5.5V104.4z"/>
	<g>
		<polygon class="st0" points="232.9,146.1 236.7,146.1 236.7,130.4 247.5,130.4 247.5,126.9 232.9,126.9 		"/>
		<path class="st0" d="M267.4,129.5c-0.7-0.8-1.5-1.4-2.5-1.9c-1-0.5-2-0.7-3.2-0.7h-9.3v19.2h3.9V141h5.4c1,0,2-0.2,2.8-0.5
			c0.9-0.4,1.7-0.9,2.3-1.5c0.6-0.6,1.2-1.4,1.6-2.2c0.4-0.9,0.6-1.8,0.6-2.8c0-0.9-0.2-1.7-0.4-2.5
			C268.3,130.8,267.9,130.1,267.4,129.5z M264.3,136.4c-0.6,0.7-1.5,1.1-2.6,1.1h-5.4v-7.1h5.1c0.6,0,1.2,0.1,1.7,0.3
			c0.5,0.2,0.9,0.4,1.2,0.8c0.3,0.3,0.5,0.7,0.6,1.1c0.2,0.4,0.2,0.9,0.2,1.5C265.2,134.9,264.9,135.7,264.3,136.4z"/>
		<path class="st0" d="M283.5,137.8h-0.2l-5.9-10.9H273c0.6,1.1,1.2,2,1.6,2.8c0.5,0.8,0.9,1.6,1.4,2.4c0.4,0.7,0.8,1.4,1.2,2.1
			c0.4,0.7,0.8,1.4,1.2,2.1c0.4,0.7,0.9,1.5,1.4,2.4c0.5,0.8,1,1.8,1.6,2.8l-0.2,0.4c-0.2,0.3-0.4,0.6-0.7,0.7
			c-0.2,0.1-0.4,0.2-0.6,0.2c-0.2,0-0.5,0.1-0.7,0.1h-1.4l-0.3,3.2c0.5,0.1,0.9,0.2,1.2,0.2c0.3,0,0.7,0,1.1,0
			c0.6,0,1.2-0.1,1.7-0.3c0.5-0.2,0.9-0.4,1.3-0.7c0.4-0.3,0.7-0.7,1.1-1.2c0.3-0.5,0.7-1,0.9-1.5l8.4-15.7H289L283.5,137.8z"/>
		<polygon class="st0" points="298.2,146.1 302.1,146.1 302.1,130.4 311.1,130.4 311.1,146.1 315,146.1 315,126.9 298.2,126.9 		"/>
		<polygon class="st0" points="322.6,146.1 326.5,146.1 326.5,130.4 335.5,130.4 335.5,146.1 339.4,146.1 339.4,126.9 322.6,126.9 
					"/>
		<path class="st0" d="M353.5,126.9l-8.5,19.2h4.1l1.5-3.4h9.6l1.6,3.4h4.1l-8.5-19.2H353.5z M352,139.2l3.1-8.4h0.3l3.3,8.4H352z"
			/>
	</g>
</g>
</svg>
