<svg width="13" height="20" viewBox="0 0 13 20" fill="none" xmlns="http://www.w3.org/2000/svg">
<path d="M0.662477 17.8132C0.369314 18.0658 0.331389 18.5139 0.578267 18.8141C0.825153 19.1151 1.26232 19.1528 1.55618 18.9009C3.37902 17.331 5.35642 15.6888 7.26788 14.1007C8.90805 12.7385 10.5214 11.398 12.0032 10.1331C12.1721 9.98876 12.2644 9.77083 12.2517 9.54644C12.2391 9.32135 12.1226 9.11608 11.9384 8.99269C11.7535 8.8686 11.4716 8.64771 11.1931 8.42819C10.8985 8.19752 10.6061 7.96965 10.4107 7.83717C7.57965 5.9162 5.23977 3.80551 2.7629 1.57083C2.27891 1.1344 1.7893 0.692366 1.2885 0.244789C1.15435 0.125017 0.988373 0.0674778 0.823173 0.0696207C0.632984 0.0720877 0.443827 0.154128 0.308429 0.312928C0.05678 0.608249 0.0869075 1.05767 0.375582 1.31542C0.874268 1.7609 1.36248 2.20153 1.84437 2.63656C4.35845 4.90416 6.73345 7.04637 9.64362 9.02103C9.81942 9.14027 10.0831 9.34789 10.3497 9.55691C10.377 9.57787 10.4044 9.60025 10.4317 9.62122C9.14693 10.7095 7.77944 11.8457 6.39271 12.9971C4.47644 14.5888 2.49423 16.2354 0.662477 17.8132Z" fill="#3893DF"/>
</svg>
