<svg width="39" height="39" viewBox="0 0 39 39" fill="none" xmlns="http://www.w3.org/2000/svg">
<g clip-path="url(#clip0)">
<path d="M34.4279 26.0437C33.3797 28.8846 31.7943 31.3549 29.7154 33.385C27.349 35.6958 24.2503 37.5319 20.5054 38.8417C20.3825 38.8846 20.2543 38.9197 20.1254 38.9456C19.9552 38.9792 19.7821 38.9974 19.6104 38.9997H19.5768C19.3938 38.9997 19.2099 38.9813 19.0275 38.9456C18.8987 38.9197 18.7722 38.8846 18.6499 38.8426C14.9005 37.5349 11.798 35.6996 9.42924 33.3889C7.34939 31.3587 5.76436 28.89 4.71759 26.049C2.81418 20.8836 2.92249 15.1933 3.00967 10.6207L3.01116 10.5504C3.02871 10.1728 3.04002 9.77622 3.04627 9.33823C3.07811 7.18786 4.78781 5.40883 6.93848 5.28892C11.4225 5.03868 14.8913 3.57624 17.8552 0.687365L17.8811 0.663561C18.3732 0.212183 18.9933 -0.00919139 19.6104 3.25846e-05C20.2055 0.00776881 20.7982 0.228846 21.2728 0.663561L21.2981 0.687365C24.2625 3.57624 27.7313 5.03868 32.2154 5.28892C34.366 5.40883 36.0757 7.18786 36.1076 9.33823C36.1138 9.77919 36.1251 10.1752 36.1427 10.5504L36.1436 10.5802C36.2305 15.1615 36.3382 20.8631 34.4279 26.0437Z" fill="#D0E5F7"/>
<path d="M34.428 26.0439C33.3797 28.8849 31.7944 31.3551 29.7154 33.3853C27.3491 35.696 24.2504 37.5322 20.5055 38.842C20.3826 38.8848 20.2544 38.9199 20.1255 38.9458C19.9553 38.9795 19.7822 38.9976 19.6105 39V0.000244141C20.2056 0.00798037 20.7983 0.229057 21.2729 0.663773L21.2982 0.687577C24.2626 3.57646 27.7314 5.0389 32.2154 5.28914C34.3661 5.40905 36.0758 7.18808 36.1076 9.33845C36.1139 9.77941 36.1252 10.1754 36.1427 10.5507L36.1436 10.5804C36.2305 15.1617 36.3382 20.8633 34.428 26.0439Z" fill="#A1D0F8"/>
<path d="M29.2959 19.4997C29.2959 24.8475 24.9538 29.2006 19.6105 29.2197H19.5763C14.2172 29.2197 9.85632 24.8591 9.85632 19.4997C9.85632 14.1406 14.2172 9.78003 19.5763 9.78003H19.6105C24.9538 9.79907 29.2959 14.1522 29.2959 19.4997Z" fill="white"/>
<path d="M29.2959 19.4997C29.2959 24.8475 24.9538 29.2006 19.6105 29.2197V9.78003C24.9538 9.79907 29.2959 14.1522 29.2959 19.4997Z" fill="#E1EBF0"/>
<path d="M23.9875 18.1L19.61 22.478L18.6641 23.4239C18.4407 23.6474 18.1476 23.759 17.8548 23.759C17.5617 23.759 17.2689 23.6474 17.0452 23.4239L15.0115 21.3893C14.5645 20.9424 14.5645 20.2185 15.0115 19.7713C15.4578 19.3244 16.1826 19.3244 16.6295 19.7713L17.8548 20.9966L22.3695 16.4819C22.8164 16.0347 23.5412 16.0347 23.9875 16.4819C24.4344 16.9288 24.4344 17.6536 23.9875 18.1Z" fill="#3285CA"/>
<path d="M23.988 18.1L19.6105 22.4781V19.2411L22.3699 16.4819C22.8168 16.0347 23.5417 16.0347 23.988 16.4819C24.4349 16.9288 24.4349 17.6536 23.988 18.1Z" fill="#3285CA"/>
</g>
<defs>
<clipPath id="clip0">
<rect width="39" height="39" fill="white"/>
</clipPath>
</defs>
</svg>
