<svg width="156" height="57" viewBox="0 0 156 57" fill="none" xmlns="http://www.w3.org/2000/svg">
<path d="M77.0874 23.6952V13.1576H69.5736L68.5351 20.7935C68.474 21.16 68.3824 21.4349 68.2297 21.5571C68.077 21.7098 67.8021 21.8015 67.4661 21.8015C67.2828 21.8015 67.1301 21.8015 67.0079 21.7709C66.8858 21.7404 66.7025 21.7098 66.4582 21.6487L66 23.4203C66.336 23.5424 66.6414 23.6341 66.8858 23.6646C67.1301 23.6952 67.4356 23.7257 67.7715 23.7257C68.5657 23.7257 69.1765 23.5119 69.6652 23.0843C70.1234 22.6872 70.3983 22.0763 70.4899 21.2822L71.3451 15.0208H75.0409V23.6952H77.0874Z" fill="#8C64BE"/>
<path d="M81.3635 22.168C81.8522 22.6873 82.4325 23.1149 83.135 23.4203C83.8375 23.7257 84.6316 23.8785 85.4563 23.8785C86.3115 23.8785 87.0446 23.7257 87.7471 23.4508C88.4191 23.176 89.0299 22.7789 89.5186 22.2596C90.0073 21.7709 90.3739 21.1906 90.6182 20.5492C90.8931 19.9078 91.0153 19.2053 91.0153 18.4417C91.0153 17.6781 90.8626 16.9756 90.6182 16.3036C90.3433 15.6317 89.9462 15.0513 89.427 14.5321C88.9383 14.0434 88.358 13.6769 87.686 13.402C87.0141 13.1271 86.281 12.9744 85.4563 12.9744C84.6011 12.9744 83.8375 13.1271 83.135 13.4325C82.4325 13.738 81.8522 14.1656 81.3635 14.6848C80.9053 15.1735 80.5388 15.7538 80.2639 16.3647C80.0196 17.0061 79.8668 17.6781 79.8668 18.4417C79.8668 19.1442 79.989 19.8467 80.2639 20.5187C80.5693 21.1601 80.9053 21.7099 81.3635 22.168ZM82.2492 17.0061C82.4325 16.5785 82.6463 16.212 82.9518 15.9066C83.2572 15.5706 83.6542 15.2957 84.0819 15.1124C84.5095 14.9292 84.9982 14.8375 85.4869 14.8375C86.0367 14.8375 86.4948 14.9292 86.9224 15.1124C87.35 15.2957 87.7166 15.54 88.022 15.8455C88.3274 16.1509 88.5412 16.548 88.694 16.9756C88.8467 17.4032 88.9383 17.8919 88.9383 18.4111C88.9383 18.9304 88.8467 19.3885 88.694 19.8161C88.5107 20.2438 88.2969 20.5797 88.022 20.8852C87.7166 21.2212 87.35 21.4961 86.9224 21.6793C86.4948 21.8626 86.0061 21.9542 85.5174 21.9542C85.0287 21.9542 84.54 21.8626 84.1124 21.6488C83.6848 21.435 83.2877 21.1906 83.0128 20.8546C82.7074 20.5492 82.4936 20.1827 82.3103 19.7551C82.1271 19.358 82.066 18.8998 82.066 18.3806C82.0049 17.8919 82.066 17.4337 82.2492 17.0061Z" fill="#8C64BE"/>
<path d="M95.9023 16.5174H95.9939L99.1094 21.0073H99.9035L103.019 16.5174H103.08V23.6952H105.249V13.1576H103.049L99.5981 18.1668L96.0244 13.1576H93.8253V23.6952H95.9023V16.5174Z" fill="#8C64BE"/>
<path d="M116.397 23.3897C116.855 23.2065 117.252 22.9316 117.588 22.5956C118.23 21.9542 118.566 21.1295 118.566 20.1216C118.566 19.0525 118.23 18.1973 117.558 17.5559C117.222 17.2504 116.825 17.0061 116.367 16.8228C115.908 16.6396 115.389 16.5479 114.809 16.5479H111.541V15.0513H117.558V13.1576H109.464V23.6952H114.809C115.42 23.6952 115.939 23.6035 116.397 23.3897ZM111.541 18.4722H114.717C115.267 18.4722 115.695 18.6249 115.969 18.8998C116.122 19.0525 116.244 19.2358 116.336 19.4496C116.428 19.6634 116.458 19.8772 116.458 20.1216C116.458 20.3354 116.428 20.5492 116.367 20.7324C116.305 20.9157 116.214 21.099 116.061 21.2517C115.908 21.4044 115.725 21.5571 115.511 21.6487C115.298 21.7404 115.053 21.8015 114.778 21.8015H111.51V18.4722H111.541Z" fill="#8C64BE"/>
<path d="M123.392 21.8015H128.676L129.531 23.6646H131.791L127.118 13.1271H124.98L120.307 23.6952H122.536L123.392 21.8015ZM125.927 15.3262H126.079L127.882 19.9078H124.186L125.927 15.3262Z" fill="#8C64BE"/>
<path d="M136.281 20.8851H139.244C139.794 20.8851 140.313 20.7935 140.801 20.6102C141.29 20.427 141.718 20.1521 142.084 19.7855C142.42 19.4496 142.726 19.0525 142.94 18.5638C143.153 18.1056 143.276 17.5864 143.276 17.0672C143.276 16.5785 143.184 16.1203 143.031 15.6927C142.878 15.2956 142.665 14.9291 142.39 14.5931C142.023 14.135 141.565 13.799 141.015 13.5546C140.465 13.3103 139.885 13.1881 139.274 13.1881H134.174V23.6951H136.312V20.8851H136.281ZM136.281 15.0818H139.091C139.427 15.0818 139.732 15.1429 140.007 15.2345C140.282 15.3262 140.496 15.4789 140.679 15.6621C140.832 15.8149 140.924 16.0287 141.015 16.2425C141.107 16.4563 141.137 16.7312 141.137 17.0366C141.137 17.5253 140.954 17.9835 140.618 18.35C140.282 18.7471 139.794 18.9609 139.213 18.9609H136.25V15.0818H136.281Z" fill="#8C64BE"/>
<path d="M154.699 21.8015V13.1576H147.155L146.238 19.8161C146.177 20.1216 146.116 20.3659 146.024 20.6408C145.933 20.8851 145.841 21.099 145.688 21.2517C145.566 21.3738 145.414 21.496 145.2 21.6182C144.986 21.7404 144.65 21.8015 144.222 21.8015V25.711H145.994L146.177 23.7257H153.691L153.905 25.711H155.707V21.8015H154.699ZM152.652 21.8015H147.765C147.918 21.5266 148.04 21.2822 148.101 21.0379C148.163 20.7935 148.224 20.5492 148.254 20.2437L149.018 15.0818H152.683V21.8015H152.652Z" fill="#8C64BE"/>
<path d="M81.1802 32.1558C80.9664 31.942 80.7221 31.7587 80.4166 31.606C80.1112 31.4839 79.7752 31.3922 79.3781 31.3922H78.7367V30.8119H77.6066V31.3922H76.9652C76.5681 31.3922 76.2321 31.4533 75.9267 31.606C75.6213 31.7282 75.3769 31.9115 75.1631 32.1558C74.9493 32.3696 74.7966 32.614 74.7049 32.8889C74.5828 33.1638 74.5522 33.4692 74.5522 33.7746C74.5522 34.1106 74.6133 34.4466 74.7355 34.7215C74.8577 34.9964 75.0409 35.2713 75.2547 35.4545C75.4685 35.6683 75.7129 35.8211 76.0183 35.9432C76.2932 36.0654 76.6292 36.1265 76.9957 36.1265H77.6371V36.7985H78.7673V36.1265H79.4087C79.7752 36.1265 80.0806 36.0654 80.3861 35.9432C80.661 35.8211 80.9053 35.6683 81.1497 35.4545C81.3635 35.2407 81.5467 34.9964 81.6689 34.7215C81.7911 34.4466 81.8522 34.1106 81.8522 33.7746C81.8522 33.4386 81.7911 33.1638 81.6995 32.8889C81.5467 32.5834 81.394 32.3391 81.1802 32.1558ZM77.6066 35.0575H77.0263C76.5681 35.0575 76.2321 34.9353 76.0183 34.7215C75.8962 34.5993 75.8045 34.4771 75.7434 34.3244C75.6823 34.1717 75.6518 33.9884 75.6518 33.7746C75.6518 33.5914 75.6823 33.4081 75.7434 33.2554C75.8045 33.1027 75.8962 32.9499 76.0183 32.8583C76.1405 32.7361 76.2627 32.6445 76.4459 32.5834C76.6292 32.5223 76.8125 32.4918 77.0263 32.4918H77.6066V35.0575ZM80.5693 34.2939C80.5082 34.4466 80.4166 34.5993 80.2944 34.6909C80.0806 34.9047 79.7447 35.0269 79.2865 35.0269H78.7367V32.4612H79.317C79.5308 32.4612 79.7141 32.4918 79.8974 32.5529C80.0806 32.614 80.2028 32.7056 80.325 32.8278C80.4472 32.9499 80.5388 33.0721 80.5999 33.2248C80.661 33.3776 80.6915 33.5608 80.6915 33.7441C80.661 33.9579 80.6304 34.1411 80.5693 34.2939Z" fill="#8C64BE"/>
<path d="M84.9065 34.9657V30.934H83.7764V36.7983H84.8149L87.9914 32.736V36.7983H89.1216V30.934H88.0831L84.9065 34.9657Z" fill="#8C64BE"/>
<path d="M95.3219 33.1636H92.4508V30.934H91.2902V36.7983H92.4508V34.2021H95.3219V36.7983H96.4826V30.934H95.3219V33.1636Z" fill="#8C64BE"/>
<path d="M104.577 36.7983L101.98 30.934H100.789L98.193 36.7983H99.4453L99.9034 35.7599H102.836L103.324 36.7983H104.577ZM100.331 34.6908L101.278 32.1252H101.37L102.377 34.6908H100.331Z" fill="#8C64BE"/>
<path d="M111.266 36.7983V30.934H110.136V33.1636H107.264V30.934H106.104V36.7983H107.264V34.2021H110.136V36.7983H111.266Z" fill="#8C64BE"/>
<path d="M118.046 35.088C117.772 35.3324 117.497 35.5156 117.222 35.6378C116.947 35.76 116.641 35.8211 116.336 35.8211C116.061 35.8211 115.817 35.76 115.572 35.6683C115.328 35.5767 115.114 35.424 114.931 35.2407C114.778 35.088 114.656 34.8742 114.565 34.6604C114.473 34.416 114.412 34.1412 114.412 33.8663C114.412 33.5914 114.473 33.3165 114.565 33.0721C114.687 32.8278 114.809 32.614 114.992 32.4307C115.175 32.2474 115.359 32.1253 115.603 32.0336C115.847 31.942 116.092 31.8809 116.336 31.8809C116.672 31.8809 116.947 31.942 117.222 32.0642C117.497 32.1864 117.772 32.3696 118.046 32.614L118.749 31.8198C118.382 31.4533 118.016 31.209 117.649 31.0562C117.283 30.9035 116.855 30.8119 116.336 30.8119C115.878 30.8119 115.45 30.9035 115.084 31.0562C114.717 31.209 114.381 31.4228 114.106 31.6977C113.831 31.9725 113.618 32.3085 113.465 32.6751C113.312 33.0416 113.251 33.4386 113.251 33.8663C113.251 34.3244 113.343 34.7215 113.495 35.088C113.648 35.4545 113.862 35.7905 114.137 36.0654C114.412 36.3403 114.748 36.5541 115.114 36.6763C115.481 36.829 115.908 36.8901 116.367 36.8901C116.855 36.8901 117.313 36.7985 117.68 36.6457C118.046 36.493 118.413 36.2181 118.78 35.8516L118.046 35.088Z" fill="#8C64BE"/>
<path d="M126.018 35.0268C126.171 34.6603 126.232 34.2632 126.232 33.8356C126.232 33.408 126.141 33.0109 125.988 32.6444C125.835 32.2779 125.621 31.9419 125.316 31.667C125.041 31.3921 124.736 31.1783 124.339 31.0256C123.972 30.8729 123.544 30.7812 123.117 30.7812C122.659 30.7812 122.231 30.8729 121.834 31.0256C121.437 31.2089 121.101 31.4227 120.857 31.7281C120.582 32.003 120.398 32.3084 120.246 32.675C120.093 33.0415 120.032 33.408 120.032 33.8356C120.032 34.2327 120.093 34.6298 120.246 34.9963C120.398 35.3628 120.582 35.6682 120.826 35.9431C121.101 36.2486 121.437 36.4624 121.803 36.6456C122.2 36.8289 122.628 36.89 123.086 36.89C123.544 36.89 123.972 36.7984 124.369 36.6456C124.736 36.4929 125.072 36.2486 125.346 35.9737C125.652 35.7293 125.866 35.3933 126.018 35.0268ZM124.888 34.6298C124.797 34.8741 124.675 35.0574 124.522 35.2406C124.339 35.4239 124.155 35.5766 123.911 35.6682C123.667 35.7599 123.422 35.821 123.147 35.821C122.872 35.821 122.598 35.7599 122.353 35.6682C122.109 35.5461 121.895 35.4239 121.742 35.2406C121.59 35.0574 121.437 34.8741 121.345 34.6298C121.254 34.416 121.193 34.1411 121.193 33.8662C121.193 33.5607 121.254 33.3164 121.345 33.072C121.437 32.8277 121.559 32.6444 121.742 32.4612C121.926 32.2779 122.139 32.1252 122.384 32.0335C122.628 31.9419 122.872 31.8808 123.147 31.8808C123.453 31.8808 123.728 31.9419 123.941 32.0335C124.186 32.1252 124.369 32.2779 124.552 32.4306C124.705 32.6139 124.827 32.8277 124.919 33.0415C125.011 33.2858 125.041 33.5607 125.041 33.8356C125.041 34.1411 124.98 34.416 124.888 34.6298Z" fill="#8C64BE"/>
<path d="M132.31 33.5607V33.4997C132.494 33.3775 132.616 33.2248 132.707 33.0415C132.799 32.8582 132.83 32.675 132.83 32.4612C132.83 32.2168 132.799 32.003 132.707 31.8198C132.616 31.6365 132.524 31.4838 132.402 31.3616C132.219 31.1783 131.974 31.0867 131.73 30.9951C131.455 30.934 131.18 30.9034 130.875 30.9034H128.034V36.7678H130.936C131.15 36.7678 131.333 36.7678 131.516 36.7373C131.669 36.7067 131.822 36.6762 131.974 36.6457C132.097 36.5846 132.219 36.554 132.341 36.4624C132.463 36.4013 132.555 36.3097 132.646 36.218C132.83 36.0653 132.952 35.8515 133.043 35.6377C133.135 35.4239 133.196 35.1796 133.196 34.9047C133.196 34.5687 133.105 34.2938 132.952 34.0494C132.799 33.8662 132.585 33.6829 132.31 33.5607ZM129.195 31.9419H130.905C131.18 31.9419 131.394 32.003 131.516 32.0946C131.638 32.1863 131.699 32.339 131.699 32.5223C131.699 32.7055 131.638 32.8582 131.547 32.9499C131.425 33.072 131.272 33.1026 131.089 33.1026H129.225V31.9419H129.195ZM131.791 35.5461C131.7 35.6377 131.577 35.6683 131.455 35.6988C131.333 35.7293 131.18 35.7599 131.028 35.7599H129.225V34.1411H131.15C131.364 34.1411 131.516 34.1716 131.638 34.2327C131.73 34.2938 131.822 34.3549 131.913 34.416C131.974 34.4771 132.005 34.5687 132.035 34.6603C132.066 34.7519 132.066 34.8436 132.066 34.9352C132.035 35.2101 131.944 35.4239 131.791 35.5461Z" fill="#8C64BE"/>
<path d="M136.983 30.934L134.387 36.7983H135.64L136.098 35.7599H139.03L139.519 36.7983H140.771L138.175 30.934H136.983ZM136.556 34.6908L137.503 32.1252H137.594L138.602 34.6908H136.556Z" fill="#8C64BE"/>
<path d="M143.275 31.1172C143.001 31.2394 142.756 31.4227 142.542 31.6365C142.359 31.8197 142.206 32.0335 142.115 32.2779C142.023 32.5222 141.962 32.7971 141.962 33.1026C141.962 33.5607 142.084 33.9578 142.329 34.3243C142.512 34.5992 142.787 34.813 143.062 34.9963L141.84 36.7983H143.184L144.222 35.2406H145.902V36.7983H147.063V30.934H144.222C143.856 30.934 143.55 30.995 143.275 31.1172ZM145.902 34.2021H144.222C144.009 34.2021 143.825 34.1716 143.673 34.08C143.52 33.9883 143.398 33.8967 143.306 33.7745C143.245 33.6829 143.184 33.5913 143.153 33.4691C143.123 33.3469 143.092 33.2247 143.092 33.1026C143.092 32.9804 143.123 32.8582 143.153 32.736C143.184 32.6139 143.245 32.5222 143.306 32.4306C143.398 32.3084 143.52 32.2168 143.673 32.1252C143.825 32.0335 144.009 32.003 144.161 32.003H145.841V34.2021H145.902Z" fill="#8C64BE"/>
<path d="M90.4349 46.9389H91.5956V42.1435H94.8943V41.0745H90.4349V46.9389Z" fill="#8C64BE"/>
<path d="M100.972 41.8686C100.759 41.6242 100.514 41.441 100.209 41.2883C99.9034 41.1355 99.598 41.0745 99.2315 41.0745H96.3909V46.9389H97.5821V45.3811H99.2315C99.5369 45.3811 99.8424 45.32 100.087 45.2284C100.362 45.1062 100.606 44.9535 100.789 44.7702C100.972 44.587 101.156 44.3426 101.278 44.0983C101.4 43.8234 101.461 43.5485 101.461 43.2431C101.461 42.9682 101.4 42.7238 101.339 42.4795C101.247 42.2657 101.125 42.0519 100.972 41.8686ZM100.026 43.9761C99.8424 44.1899 99.5675 44.3121 99.2315 44.3121H97.5821V42.1435H99.1399C99.3231 42.1435 99.5064 42.174 99.6591 42.2351C99.8118 42.2962 99.934 42.3573 100.026 42.4795C100.117 42.5711 100.178 42.6933 100.209 42.8155C100.27 42.9376 100.27 43.0903 100.27 43.2736C100.301 43.518 100.209 43.7623 100.026 43.9761Z" fill="#8C64BE"/>
<path d="M105.89 44.4037H105.829L104.027 41.0745H102.683C102.866 41.4104 103.049 41.6853 103.172 41.9297C103.324 42.174 103.447 42.4184 103.599 42.6627C103.721 42.8765 103.844 43.0903 103.966 43.3042C104.088 43.518 104.21 43.7318 104.332 43.9456C104.454 44.1594 104.607 44.4037 104.76 44.6786C104.913 44.923 105.065 45.2284 105.249 45.5338L105.188 45.656C105.126 45.7476 105.065 45.8393 104.974 45.8698C104.913 45.9004 104.852 45.9309 104.79 45.9309C104.729 45.9309 104.638 45.9615 104.577 45.9615H104.149L104.057 46.9389C104.21 46.9694 104.332 46.9999 104.424 46.9999C104.516 46.9999 104.638 46.9999 104.76 46.9999C104.943 46.9999 105.126 46.9694 105.279 46.9083C105.432 46.8472 105.554 46.7861 105.676 46.6945C105.798 46.6029 105.89 46.4807 106.012 46.328C106.104 46.1753 106.226 46.0225 106.287 45.8698L108.853 41.0745H107.57L105.89 44.4037Z" fill="#8C64BE"/>
<path d="M110.38 46.9389H111.571V42.1435H114.32V46.9389H115.511V41.0745H110.38V46.9389Z" fill="#8C64BE"/>
<path d="M117.833 46.9389H119.024V42.1435H121.773V46.9389H122.964V41.0745H117.833V46.9389Z" fill="#8C64BE"/>
<path d="M127.271 41.0745L124.674 46.9389H125.927L126.385 45.9004H129.317L129.806 46.9389H131.058L128.462 41.0745H127.271ZM126.812 44.8313L127.759 42.2657H127.851L128.859 44.8313H126.812Z" fill="#8C64BE"/>
<path d="M28.4056 56.8418C10.5987 56.8418 0.305437 47.0373 0.183262 46.9456L0 46.1515C0.0610874 45.9988 0.152718 45.7544 0.274893 45.4185C6.5058 28.7111 4.94808 15.4246 2.53513 7.23885L3.29872 6.292C3.45144 6.292 3.60415 6.292 3.75687 6.292C5.8033 6.292 9.25474 5.52841 11.7288 4.55101C12.3702 4.30666 13.0727 4.00122 13.8057 3.66524C17.3488 2.10751 22.2053 0 28.4056 0C34.606 0 39.4624 2.10751 43.0055 3.66524C43.7386 3.97068 44.4411 4.27612 45.0825 4.55101C47.5871 5.55895 51.008 6.292 53.0544 6.292C53.2071 6.292 53.3598 6.292 53.5125 6.292L54.2761 7.23885C51.8632 15.4246 50.3054 28.7111 56.5669 45.449C56.6891 45.785 56.7807 46.0293 56.8418 46.1821L56.6585 46.9456C56.5058 47.0373 46.2126 56.8418 28.4056 56.8418ZM1.58827 46.1821C2.53513 47.0373 5.34514 49.2975 10.0794 51.4356C15.8522 54.0318 21.9915 55.3452 28.4056 55.3452C34.8198 55.3452 40.9591 54.0318 46.7318 51.4356C51.4661 49.2975 54.2761 47.0373 55.223 46.1821C55.1924 46.121 55.1619 46.0293 55.1314 45.9682C48.9615 29.5052 50.2444 16.2492 52.5351 7.78864C50.3055 7.69701 46.9456 6.93342 44.4716 5.92547C43.7996 5.65058 43.0971 5.34514 42.3641 5.03971C38.7905 3.45144 34.3006 1.49664 28.4056 1.49664C22.5107 1.49664 18.0208 3.45144 14.4166 5.03971C13.6836 5.37569 12.9811 5.68113 12.3091 5.92547C9.83507 6.90287 6.47526 7.66646 4.24557 7.78864C6.56689 16.2492 7.81918 29.5052 1.64936 45.9682C1.61882 46.0293 1.58827 46.121 1.58827 46.1821Z" fill="#8C64BE"/>
<path d="M29.383 34.8198H27.9169C27.9169 31.5211 25.2291 28.8333 21.9304 28.8333V27.3672C25.2291 27.3672 27.9169 24.6793 27.9169 21.3806H29.383C29.383 24.6793 32.0709 27.3672 35.3696 27.3672V28.8333C32.0709 28.8333 29.383 31.5211 29.383 34.8198ZM25.1374 28.0697C26.6646 28.8027 27.9169 30.055 28.65 31.5822C29.383 30.055 30.6353 28.8027 32.1625 28.0697C30.6353 27.3366 29.383 26.0843 28.65 24.5572C27.9169 26.1149 26.6646 27.3366 25.1374 28.0697Z" fill="#8C64BE"/>
<path d="M35.7056 43.2498C32.7428 43.2498 30.0244 41.6004 28.6194 39.0959C27.2144 41.631 24.5266 43.2498 21.5333 43.2498C17.0739 43.2498 13.4392 39.6151 13.4392 35.1557H14.9053C14.9053 38.821 17.8681 41.7837 21.5333 41.7837C24.4655 41.7837 27.0922 39.7984 27.9169 36.9883H29.3219C30.1161 39.8289 32.7428 41.7837 35.7056 41.7837C39.3708 41.7837 42.3335 38.821 42.3335 35.1557C42.3335 32.2235 40.3482 29.5968 37.5382 28.7721V27.3671C40.3787 26.5729 42.3335 23.9462 42.3335 20.9835C42.3335 17.3182 39.3708 14.3555 35.7056 14.3555C32.7734 14.3555 30.1466 16.3408 29.3219 19.1508H27.9169C27.1228 16.3714 24.5266 14.386 21.5638 14.386C17.8986 14.386 14.9359 17.3488 14.9359 21.014H13.4698C13.4698 16.5546 17.1045 12.9199 21.5638 12.9199C24.5266 12.9199 27.245 14.5693 28.65 17.0739C30.055 14.5387 32.7428 12.9199 35.7361 12.9199C40.1955 12.9199 43.8302 16.5546 43.8302 21.014C43.8302 23.9767 42.1808 26.6951 39.6763 28.1001C42.2114 29.5051 43.8302 32.193 43.8302 35.1863C43.7996 39.6151 40.1955 43.2498 35.7056 43.2498Z" fill="#8C64BE"/>
</svg>
