<svg width="56" height="56" viewBox="0 0 56 56" fill="none" xmlns="http://www.w3.org/2000/svg">
<g filter="url(#filter0_d)">
<rect x="14" y="12" width="24" height="24" rx="12" fill="white"/>
</g>
<path d="M28.8481 19.6631C28.9963 19.5322 29.0182 19.2966 28.8967 19.137C28.7752 18.9769 28.5569 18.9541 28.4083 19.0846C27.4868 19.8984 26.4875 20.7491 25.5216 21.5719C24.6927 22.2775 23.8774 22.972 23.1284 23.6276C23.043 23.7024 22.9955 23.8164 23.0003 23.9346C23.0052 24.0531 23.0621 24.162 23.1534 24.2282C23.245 24.2947 23.3846 24.4129 23.5224 24.5303C23.6681 24.6537 23.8129 24.7757 23.9097 24.8467C25.3126 25.877 26.4688 27.0038 27.6926 28.1967C27.9318 28.4297 28.1737 28.6657 28.4212 28.9046C28.4875 28.9686 28.5701 29 28.6527 29C28.7478 29 28.8429 28.9581 28.9116 28.8755C29.0393 28.7218 29.0272 28.485 28.8845 28.3474C28.6381 28.1096 28.3969 27.8744 28.1588 27.6421C26.9165 26.4316 25.743 25.288 24.3009 24.2289C24.2138 24.165 24.0833 24.0539 23.9514 23.9421C23.9378 23.9309 23.9243 23.9189 23.9108 23.9077C24.5602 23.3437 25.2512 22.7551 25.952 22.1586C26.9204 21.334 27.9221 20.481 28.8481 19.6631Z" fill="#3893DF"/>
<defs>
<filter id="filter0_d" x="0" y="0" width="56" height="56" filterUnits="userSpaceOnUse" color-interpolation-filters="sRGB">
<feFlood flood-opacity="0" result="BackgroundImageFix"/>
<feColorMatrix in="SourceAlpha" type="matrix" values="0 0 0 0 0 0 0 0 0 0 0 0 0 0 0 0 0 0 127 0"/>
<feOffset dx="2" dy="4"/>
<feGaussianBlur stdDeviation="8"/>
<feColorMatrix type="matrix" values="0 0 0 0 0.913725 0 0 0 0 0.913725 0 0 0 0 0.913725 0 0 0 0.7 0"/>
<feBlend mode="normal" in2="BackgroundImageFix" result="effect1_dropShadow"/>
<feBlend mode="normal" in="SourceGraphic" in2="effect1_dropShadow" result="shape"/>
</filter>
</defs>
</svg>
