<svg width="47" height="47" viewBox="0 0 47 47" fill="none" xmlns="http://www.w3.org/2000/svg">
<g filter="url(#filter0_d)">
<rect x="14" y="12" width="15" height="15" rx="7.5" fill="white"/>
</g>
<path d="M20.076 21.6684C20.0018 21.7339 19.9909 21.8517 20.0517 21.9315C20.1124 22.0115 20.2216 22.023 20.2958 21.9577C20.7566 21.5508 21.2562 21.1254 21.7392 20.7141C22.1536 20.3612 22.5613 20.014 22.9358 19.6862C22.9785 19.6488 23.0023 19.5918 22.9998 19.5327C22.9974 19.4734 22.9689 19.419 22.9233 19.3859C22.8775 19.3526 22.8077 19.2935 22.7388 19.2348C22.6659 19.1731 22.5936 19.1122 22.5451 19.0766C21.8437 18.5615 21.2656 17.9981 20.6537 17.4016C20.5341 17.2852 20.4132 17.1672 20.2894 17.0477C20.2563 17.0157 20.215 17 20.1737 17C20.1261 17 20.0786 17.0209 20.0442 17.0623C19.9803 17.1391 19.9864 17.2575 20.0577 17.3263C20.1809 17.4452 20.3016 17.5628 20.4206 17.6789C21.0417 18.2842 21.6285 18.856 22.3496 19.3855C22.3931 19.4175 22.4584 19.4731 22.5243 19.529C22.5311 19.5346 22.5379 19.5406 22.5446 19.5462C22.2199 19.8281 21.8744 20.1224 21.524 20.4207C21.0398 20.833 20.539 21.2595 20.076 21.6684Z" fill="#3893DF"/>
<defs>
<filter id="filter0_d" x="0" y="0" width="47" height="47" filterUnits="userSpaceOnUse" color-interpolation-filters="sRGB">
<feFlood flood-opacity="0" result="BackgroundImageFix"/>
<feColorMatrix in="SourceAlpha" type="matrix" values="0 0 0 0 0 0 0 0 0 0 0 0 0 0 0 0 0 0 127 0"/>
<feOffset dx="2" dy="4"/>
<feGaussianBlur stdDeviation="8"/>
<feColorMatrix type="matrix" values="0 0 0 0 0.913725 0 0 0 0 0.913725 0 0 0 0 0.913725 0 0 0 0.7 0"/>
<feBlend mode="normal" in2="BackgroundImageFix" result="effect1_dropShadow"/>
<feBlend mode="normal" in="SourceGraphic" in2="effect1_dropShadow" result="shape"/>
</filter>
</defs>
</svg>
