<svg width="16" height="16" viewBox="0 0 16 16" fill="none" xmlns="http://www.w3.org/2000/svg">
<path d="M6.93331 1.59998C3.99411 1.59998 1.59998 3.99411 1.59998 6.93331C1.59998 9.87251 3.99411 12.2666 6.93331 12.2666C8.21145 12.2666 9.38525 11.8128 10.3052 11.0594L13.4896 14.2437C13.5387 14.2949 13.5976 14.3358 13.6627 14.3639C13.7278 14.3921 13.7979 14.407 13.8689 14.4077C13.9398 14.4084 14.0102 14.395 14.0759 14.3681C14.1416 14.3413 14.2013 14.3017 14.2515 14.2515C14.3017 14.2013 14.3413 14.1416 14.3681 14.0759C14.395 14.0102 14.4084 13.9398 14.4077 13.8689C14.407 13.7979 14.3921 13.7278 14.3639 13.6627C14.3358 13.5976 14.2949 13.5387 14.2437 13.4896L11.0594 10.3052C11.8128 9.38525 12.2666 8.21145 12.2666 6.93331C12.2666 3.99411 9.87251 1.59998 6.93331 1.59998ZM6.93331 2.66664C9.29604 2.66664 11.2 4.57058 11.2 6.93331C11.2 9.29604 9.29604 11.2 6.93331 11.2C4.57058 11.2 2.66664 9.29604 2.66664 6.93331C2.66664 4.57058 4.57058 2.66664 6.93331 2.66664Z" fill="#C9C9C9"/>
</svg>
