<svg width="25" height="33" viewBox="0 0 25 33" fill="none" xmlns="http://www.w3.org/2000/svg">
<path d="M12.0732 12.6782C11.671 12.276 11.0172 12.2739 10.6129 12.6761L7.21806 16.073L5.88568 14.7386C5.4835 14.3364 4.82968 14.3364 4.4275 14.7386C4.02531 15.1408 4.02531 15.7946 4.4275 16.1968L6.48999 18.2593C6.69006 18.4614 6.95406 18.5625 7.21806 18.5625C7.48206 18.5625 7.74606 18.4614 7.94818 18.2614L12.0732 14.1364C12.4754 13.7342 12.4754 13.0803 12.0732 12.6782Z" fill="#3285CA"/>
<path d="M12.0732 20.9282C11.671 20.526 11.0172 20.5239 10.6129 20.9261L7.21806 24.323L5.88568 22.9907C5.4835 22.5885 4.82968 22.5885 4.4275 22.9907C4.02531 23.3928 4.02531 24.0467 4.4275 24.4488L6.48999 26.5113C6.69006 26.7114 6.95406 26.8125 7.21806 26.8125C7.48206 26.8125 7.74606 26.7114 7.94818 26.5113L12.0732 22.3863C12.4754 21.9842 12.4754 21.3303 12.0732 20.9282Z" fill="#3285CA"/>
<path d="M19.5938 14.4375H15.4688C14.8995 14.4375 14.4375 14.8995 14.4375 15.4688C14.4375 16.038 14.8995 16.5 15.4688 16.5H19.5938C20.163 16.5 20.625 16.038 20.625 15.4688C20.625 14.8995 20.163 14.4375 19.5938 14.4375Z" fill="#3285CA"/>
<path d="M19.5938 22.6875H15.4688C14.8995 22.6875 14.4375 23.1495 14.4375 23.7188C14.4375 24.288 14.8995 24.75 15.4688 24.75H19.5938C20.163 24.75 20.625 24.288 20.625 23.7188C20.625 23.1495 20.163 22.6875 19.5938 22.6875Z" fill="#3285CA"/>
<path d="M22.6875 4.125H18.5625V3.09375C18.5625 2.5245 18.1005 2.0625 17.5312 2.0625H15.2934C14.8665 0.862125 13.7198 0 12.375 0C11.0302 0 9.8835 0.862125 9.45656 2.0625H7.21875C6.6495 2.0625 6.1875 2.5245 6.1875 3.09375V4.125H2.0625C0.926063 4.125 0 5.05106 0 6.1875V30.9375C0 32.0739 0.926063 33 2.0625 33H22.6875C23.8239 33 24.75 32.0739 24.75 30.9375V6.1875C24.75 5.05106 23.8239 4.125 22.6875 4.125ZM8.25 4.125H10.3125C10.8818 4.125 11.3438 3.663 11.3438 3.09375C11.3438 2.5245 11.8057 2.0625 12.375 2.0625C12.9443 2.0625 13.4062 2.5245 13.4062 3.09375C13.4062 3.663 13.8682 4.125 14.4375 4.125H16.5V6.1875H8.25V4.125ZM22.6875 30.9375H2.0625V6.1875H6.1875V7.21875C6.1875 7.788 6.6495 8.25 7.21875 8.25H17.5312C18.1005 8.25 18.5625 7.788 18.5625 7.21875V6.1875H22.6875V30.9375Z" fill="#3285CA"/>
</svg>
