<svg width="31" height="31" viewBox="0 0 31 31" fill="none" xmlns="http://www.w3.org/2000/svg">
<path d="M28.2754 0C28.1058 0 8.65185 0 8.23438 0C6.73203 0 5.50977 1.22226 5.50977 2.72461V9.14258H2.72461C1.22226 9.14258 0 10.3648 0 11.8672V15.5C0 17.0023 1.22226 18.2246 2.72461 18.2246H5.50977V28.2754C5.50977 29.7777 6.73203 31 8.23438 31H22.7656C24.268 31 25.4902 29.7777 25.4902 28.2754C25.4902 28.0035 25.4902 12.9117 25.4902 12.7754H28.2754C29.7777 12.7754 31 11.5531 31 10.0508V2.72461C31 1.22226 29.7777 0 28.2754 0ZM7.32617 2.72461C7.32617 2.22383 7.73359 1.81035 8.23438 1.81035H14.748C14.6472 2.09462 14.5918 2.40625 14.5918 2.72461V3.63281H7.32617V2.72461ZM6.41797 16.4082H2.72461C2.22383 16.4082 1.81641 16.0008 1.81641 15.5V11.8672C1.81641 11.3664 2.22383 10.959 2.72461 10.959H10.0508C10.5516 10.959 10.959 11.3664 10.959 11.8672V15.5C10.959 16.0008 10.5516 16.4082 10.0508 16.4082C9.54921 16.4082 9.14258 16.8148 9.14258 17.3164V18.7566L7.06031 16.6744C6.89526 16.5093 6.6624 16.4082 6.41797 16.4082ZM23.6738 28.2754C23.6738 28.7762 23.2664 29.1836 22.7656 29.1836H8.23438C7.73359 29.1836 7.32617 28.7762 7.32617 28.2754V25.4902H23.6738V28.2754ZM23.6738 23.6738H7.32617V19.509L9.40862 21.5914C9.66879 21.8516 10.0596 21.9286 10.3984 21.7883C10.7377 21.6477 10.959 21.3165 10.959 20.9492V18.069C12.0163 17.6942 12.7755 16.6841 12.7755 15.5V11.8672C12.7755 10.3648 11.5532 9.14258 10.0508 9.14258H7.32623V5.44922H14.5919V10.0508C14.5919 11.2348 15.3511 12.2449 16.4083 12.6198V15.5C16.4083 15.8673 16.6296 16.1985 16.9689 16.3391C17.3083 16.4796 17.6989 16.4019 17.9587 16.1422L21.3254 12.7754H23.6738V23.6738ZM29.1836 10.0508C29.1836 10.5516 28.7762 10.959 28.2754 10.959H20.9492C20.7083 10.959 20.4773 11.0547 20.3071 11.225L18.2246 13.3074V11.8672C18.2246 11.3656 17.818 10.959 17.3164 10.959C16.8156 10.959 16.4082 10.5516 16.4082 10.0508V2.72461C16.4082 2.22383 16.8156 1.81641 17.3164 1.81641C17.8283 1.81641 27.7853 1.81641 28.2754 1.81641C28.7762 1.81641 29.1836 2.22383 29.1836 2.72461V10.0508Z" fill="#3285CA"/>
<path d="M26.3984 3.63281H19.1328C18.6312 3.63281 18.2246 4.03945 18.2246 4.54102C18.2246 5.04259 18.6312 5.44922 19.1328 5.44922H26.3984C26.9 5.44922 27.3066 5.04259 27.3066 4.54102C27.3066 4.03945 26.9 3.63281 26.3984 3.63281Z" fill="#3285CA"/>
<path d="M26.3984 7.32617H19.1328C18.6312 7.32617 18.2246 7.7328 18.2246 8.23438C18.2246 8.73595 18.6312 9.14258 19.1328 9.14258H26.3984C26.9 9.14258 27.3066 8.73595 27.3066 8.23438C27.3066 7.7328 26.9 7.32617 26.3984 7.32617Z" fill="#3285CA"/>
<path d="M8.23438 12.7754H4.60156C4.09999 12.7754 3.69336 13.182 3.69336 13.6836C3.69336 14.1852 4.09999 14.5918 4.60156 14.5918H8.23438C8.73595 14.5918 9.14258 14.1852 9.14258 13.6836C9.14258 13.182 8.73595 12.7754 8.23438 12.7754Z" fill="#3285CA"/>
</svg>
