<svg width="33" height="32" viewBox="0 0 33 32" fill="none" xmlns="http://www.w3.org/2000/svg">
<path d="M16.4998 6.35099C18.1115 6.35099 19.418 5.04445 19.418 3.43281C19.418 1.82116 18.1115 0.514624 16.4998 0.514624C14.8882 0.514624 13.5816 1.82116 13.5816 3.43281C13.5816 5.04445 14.8881 6.35099 16.4998 6.35099ZM16.4998 2.12371C17.2228 2.12371 17.8089 2.70979 17.8089 3.43281C17.8089 4.15582 17.2228 4.7419 16.4998 4.7419C15.7768 4.7419 15.1907 4.15582 15.1907 3.43281C15.1907 2.70979 15.7768 2.12371 16.4998 2.12371Z" fill="#3285CA" stroke="#3285CA" stroke-width="0.2"/>
<path d="M11.4693 10.4383L11.4693 10.4383L17.5239 6.70815L17.5222 6.60817L17.5221 6.60817L17.4854 6.60903H15.5152C13.3408 6.54954 11.5295 8.2637 11.4693 10.4383ZM19.8418 10.1317H13.1585C13.2209 9.66958 13.4864 9.20847 13.885 8.85324C14.3136 8.47138 14.8893 8.21805 15.5138 8.21805H17.4865C18.111 8.21805 18.6868 8.47136 19.1153 8.85321C19.5139 9.20844 19.7794 9.66955 19.8418 10.1317Z" fill="#3285CA" stroke="#3285CA" stroke-width="0.2"/>
<path d="M4.24669 17.8055C4.24673 18.2498 4.60691 18.61 5.05124 18.61C5.49559 18.61 5.85578 18.2498 5.85578 17.8055V17.8054C5.85358 14.5766 7.31702 11.5213 9.83429 9.49934L9.83458 9.49969L9.84145 9.493C10.1598 9.18293 10.1664 8.67359 9.85632 8.35529C9.58659 8.0784 9.15802 8.03251 8.83578 8.24595L8.83556 8.24561L8.82851 8.25126C5.92787 10.5736 4.24168 14.0897 4.24669 17.8055ZM4.24669 17.8055C4.24669 17.8055 4.24669 17.8055 4.24669 17.8055H4.34669L4.24669 17.8056C4.24669 17.8056 4.24669 17.8055 4.24669 17.8055Z" fill="#3285CA" stroke="#3285CA" stroke-width="0.2"/>
<path d="M13.1494 27.8913L13.1494 27.8913C15.3346 28.6228 17.6985 28.6229 19.8837 27.8917L19.8997 27.8858L13.1494 27.8913ZM13.1494 27.8913L13.1474 27.8907M13.1494 27.8913L13.1474 27.8907M13.1474 27.8907C12.7264 27.7595 12.2785 27.9916 12.1427 28.4108C11.9909 28.8061 12.1873 29.2501 12.5824 29.4036L12.5824 29.4036M13.1474 27.8907L12.5824 29.4036M12.5824 29.4036C12.5974 29.4094 12.6128 29.4149 12.6288 29.4199M12.5824 29.4036L20.4065 29.4195M20.4065 29.4195L20.4065 29.4195C17.884 30.272 15.1513 30.2721 12.6288 29.4199M20.4065 29.4195L20.408 29.419M20.4065 29.4195L20.408 29.419M12.6288 29.4199C12.6284 29.4198 12.6281 29.4196 12.6277 29.4195L12.6597 29.3248L12.63 29.4203C12.6296 29.4202 12.6292 29.42 12.6288 29.4199ZM20.408 29.419C20.8319 29.2677 21.0612 28.8092 20.9279 28.3792L20.928 28.3792M20.408 29.419L20.928 28.3792M20.928 28.3792L20.9267 28.3755M20.928 28.3792L20.9267 28.3755M20.9267 28.3755C20.7784 27.9567 20.3186 27.7375 19.8997 27.8858L20.9267 28.3755Z" fill="#3285CA" stroke="#3285CA" stroke-width="0.2"/>
<path d="M27.1433 17.8054V17.8055C27.1433 18.2499 27.5035 18.6101 27.9478 18.6101C28.3922 18.6101 28.7524 18.2499 28.7524 17.8055L28.7524 17.8053C28.7425 13.8254 26.8113 10.0953 23.5671 7.78994L23.5671 7.78993L23.5664 7.78941C23.2 7.53411 22.6961 7.62406 22.4408 7.99038L22.4408 7.99039C22.1855 8.35666 22.2754 8.86051 22.6416 9.11586C25.4683 11.106 27.1481 14.3484 27.1433 17.8054Z" fill="#3285CA" stroke="#3285CA" stroke-width="0.2"/>
<path d="M5.93146 25.7259C7.54311 25.7259 8.84964 24.4193 8.84964 22.8077C8.84964 21.196 7.54311 19.8895 5.93146 19.8895C4.31982 19.8895 3.01328 21.196 3.01328 22.8077C3.01328 24.4194 4.31982 25.7259 5.93146 25.7259ZM5.93146 21.4986C6.65448 21.4986 7.24055 22.0847 7.24055 22.8077C7.24055 23.5307 6.65448 24.1168 5.93146 24.1168C5.20845 24.1168 4.62237 23.5307 4.62237 22.8077C4.62237 22.0847 5.20845 21.4986 5.93146 21.4986Z" fill="#3285CA" stroke="#3285CA" stroke-width="0.2"/>
<path d="M0.900915 29.813L0.900913 29.8131L6.95556 26.0829L6.95394 25.9829L6.95377 25.9829L6.91713 25.9838H4.94687C2.77244 25.9243 0.96116 27.6385 0.900915 29.813ZM9.27354 29.5064H2.59017C2.65262 29.0443 2.9181 28.5832 3.31675 28.228C3.74527 27.8461 4.32102 27.5928 4.9455 27.5928H6.91821C7.54272 27.5928 8.11849 27.8461 8.54701 28.228C8.94566 28.5832 9.21113 29.0443 9.27354 29.5064Z" fill="#3285CA" stroke="#3285CA" stroke-width="0.2"/>
<path d="M24.15 22.8077C24.15 24.4193 25.4565 25.7259 27.0682 25.7259C28.6798 25.7259 29.9864 24.4193 29.9864 22.8077C29.9864 21.196 28.6798 19.8895 27.0682 19.8895C25.4565 19.8895 24.15 21.196 24.15 22.8077ZM28.3773 22.8077C28.3773 23.5307 27.7912 24.1168 27.0682 24.1168C26.3452 24.1168 25.7591 23.5307 25.7591 22.8077C25.7591 22.0847 26.3452 21.4986 27.0682 21.4986C27.7912 21.4986 28.3773 22.0847 28.3773 22.8077Z" fill="#3285CA" stroke="#3285CA" stroke-width="0.2"/>
<path d="M22.0376 29.813L22.0376 29.8131L28.0922 26.0829L28.0906 25.9829L28.0904 25.9829L28.0538 25.9838H26.0836C23.9092 25.9243 22.0979 27.6385 22.0376 29.813ZM30.4102 29.5064H23.7268C23.7893 29.0443 24.0547 28.5832 24.4534 28.228C24.8819 27.8461 25.4577 27.5928 26.0821 27.5928H28.0549C28.6794 27.5928 29.2551 27.8461 29.6837 28.228C30.0823 28.5832 30.3478 29.0443 30.4102 29.5064Z" fill="#3285CA" stroke="#3285CA" stroke-width="0.2"/>
</svg>
