<svg width="4" height="6" viewBox="0 0 4 6" fill="none" xmlns="http://www.w3.org/2000/svg">
<path d="M0.101271 5.60212C0.00246623 5.68065 -0.0121116 5.82201 0.0688756 5.91782C0.149863 6.01386 0.295409 6.02755 0.394445 5.94924C1.00879 5.46098 1.67497 4.95052 2.31894 4.45688C2.8715 4.03347 3.41504 3.6168 3.91439 3.22346C3.97131 3.17858 4.00301 3.11014 3.99977 3.03924C3.99653 2.96811 3.95859 2.90282 3.89773 2.8631C3.83664 2.82316 3.74362 2.75226 3.65176 2.6818C3.55457 2.60776 3.45808 2.53461 3.39353 2.49198C2.45824 1.87381 1.68747 1.19775 0.871577 0.481971C0.712148 0.342181 0.550867 0.200597 0.385884 0.0572178C0.341688 0.0188486 0.286617 1.52203e-07 0.231545 1.47388e-07C0.168144 1.41846e-07 0.104742 0.0251309 0.0589264 0.0747191C-0.026226 0.16694 -0.0181274 0.308973 0.0769746 0.391545C0.241263 0.534251 0.402082 0.675387 0.560817 0.814727C1.38897 1.54105 2.17131 2.22721 3.13275 2.86265C3.19083 2.90102 3.27783 2.96766 3.36576 3.03475C3.37478 3.04148 3.38381 3.04866 3.39283 3.0554C2.9599 3.39376 2.49919 3.74694 2.03201 4.10482C1.38643 4.59958 0.718626 5.1114 0.101271 5.60212Z" fill="#3893DF"/>
</svg>
