<svg width="12" height="19" viewBox="0 0 12 19" fill="none" xmlns="http://www.w3.org/2000/svg">
<path d="M11.6962 1.25996C11.9926 1.01127 12.0363 0.563627 11.7934 0.260227C11.5504 -0.0438842 11.1138 -0.0872272 10.8167 0.160751C8.97362 1.70689 6.97508 3.32336 5.04319 4.88655C3.38549 6.22734 1.75487 7.54681 0.256831 8.79239C0.0860629 8.93449 -0.00903977 9.15121 0.00067872 9.37574C0.0103972 9.60098 0.124242 9.80775 0.306811 9.93351C0.490074 10.06 0.769134 10.2845 1.04472 10.5076C1.33628 10.7421 1.62575 10.9737 1.81942 11.1087C4.62529 13.0663 6.9376 15.2071 9.38527 17.4738C9.86356 17.9164 10.3474 18.3648 10.8423 18.8188C10.9749 18.9403 11.1402 19 11.3054 19C11.4956 19 11.6858 18.9204 11.8232 18.7634C12.0787 18.4714 12.0544 18.0216 11.7691 17.7601C11.2762 17.3082 10.7938 16.8613 10.3175 16.42C7.83309 14.12 5.48607 11.9472 2.60176 9.93493C2.42752 9.81343 2.16651 9.6024 1.90273 9.38995C1.87565 9.36863 1.84858 9.3459 1.82151 9.32458C3.12031 8.25309 4.50242 7.1347 5.90397 6.00139C7.84072 4.43465 9.84412 2.81391 11.6962 1.25996Z" fill="#3893DF"/>
</svg>
